<?xml version="1.0" standalone="no"?>
<!DOCTYPE svg PUBLIC "-//W3C//DTD SVG 20010904//EN"
 "http://www.w3.org/TR/2001/REC-SVG-20010904/DTD/svg10.dtd">
<svg version="1.0" xmlns="http://www.w3.org/2000/svg"
 width="100.000000pt" height="89.000000pt" viewBox="0 0 100.000000 89.000000"
 preserveAspectRatio="xMidYMid meet">
<metadata>
Created by potrace 1.16, written by Peter Selinger 2001-2019
</metadata>
<g transform="translate(0.000000,89.000000) scale(0.100000,-0.100000)"
fill="#000000" stroke="none">
<path d="M0 445 l0 -445 500 0 500 0 0 445 0 445 -500 0 -500 0 0 -445z m544
219 c11 -4 16 -19 16 -44 0 -22 4 -41 8 -44 5 -3 30 17 56 44 27 28 55 50 63
50 24 0 153 -130 153 -155 0 -12 -20 -40 -45 -65 -25 -24 -45 -48 -45 -52 0
-4 15 -8 33 -8 18 0 38 -5 45 -12 16 -16 16 -200 0 -216 -16 -16 -200 -16
-216 0 -8 8 -12 46 -12 107 0 75 4 98 17 113 16 18 15 20 -14 50 -29 29 -33
30 -48 15 -13 -14 -37 -17 -115 -17 -120 0 -120 0 -120 124 0 112 4 116 120
116 49 0 95 -3 104 -6z m14 -383 c2 -67 -1 -108 -9 -117 -8 -10 -37 -14 -105
-14 -120 0 -124 4 -124 116 0 126 -1 125 128 122 l107 -3 3 -104z"/>
<path d="M359 633 c-1 -8 0 -151 1 -165 0 -5 38 -8 85 -8 l85 0 0 90 0 90 -85
0 c-47 0 -85 -3 -86 -7z"/>
<path d="M627 582 c-31 -32 -57 -62 -57 -68 0 -13 102 -114 116 -114 5 0 36
27 68 59 l59 59 -58 61 c-32 34 -61 61 -64 61 -4 0 -32 -26 -64 -58z"/>
<path d="M632 273 l3 -88 85 0 85 0 3 88 3 87 -91 0 -91 0 3 -87z"/>
<path d="M360 353 c-2 -16 -2 -129 -1 -150 1 -22 5 -23 86 -23 l85 0 0 90 0
90 -85 0 c-47 0 -85 -3 -85 -7z"/>
</g>
</svg>
