<?xml version="1.0" standalone="no"?>
<!DOCTYPE svg PUBLIC "-//W3C//DTD SVG 20010904//EN"
 "http://www.w3.org/TR/2001/REC-SVG-20010904/DTD/svg10.dtd">
<svg version="1.0" xmlns="http://www.w3.org/2000/svg"
 width="75.000000pt" height="65.000000pt" viewBox="0 0 75.000000 65.000000"
 preserveAspectRatio="xMidYMid meet">
<metadata>
Created by potrace 1.16, written by Peter Selinger 2001-2019
</metadata>
<g transform="translate(0.000000,65.000000) scale(0.100000,-0.100000)"
fill="#BD71EF" stroke="none">
<path d="M0 325 l0 -325 375 0 375 0 0 325 0 325 -375 0 -375 0 0 -325z m562
258 c14 -13 18 -31 18 -85 0 -64 1 -68 23 -68 13 0 28 -5 35 -12 17 -17 17
-309 0 -326 -7 -7 -44 -12 -95 -12 -72 0 -84 3 -95 20 -12 18 -24 20 -116 20
-113 0 -142 9 -142 43 0 32 18 47 57 47 21 0 33 5 33 14 0 10 -18 15 -61 18
-95 7 -101 18 -97 188 2 98 7 142 17 153 12 15 39 17 209 17 168 0 198 -2 214
-17z"/>
<path d="M167 554 c-4 -4 -7 -63 -7 -131 l0 -123 26 -11 c15 -5 77 -8 138 -7
l111 3 3 60 c2 32 8 65 14 72 6 7 28 13 50 13 l39 0 -3 63 -3 62 -181 3 c-99
1 -183 -1 -187 -4z"/>
<path d="M480 255 l0 -135 65 0 65 0 0 135 0 135 -65 0 -65 0 0 -135z"/>
</g>
</svg>
