<?xml version="1.0" standalone="no"?>
<!DOCTYPE svg PUBLIC "-//W3C//DTD SVG 20010904//EN"
 "http://www.w3.org/TR/2001/REC-SVG-20010904/DTD/svg10.dtd">
<svg version="1.0" xmlns="http://www.w3.org/2000/svg"
 width="202.000000pt" height="120.000000pt" viewBox="0 0 202.000000 120.000000"
 preserveAspectRatio="xMidYMid meet">
<metadata>
Created by potrace 1.16, written by Peter Selinger 2001-2019
</metadata>
<g transform="translate(0.000000,120.000000) scale(0.100000,-0.100000)"
fill="#39065B" stroke="none">
<path d="M0 600 l0 -600 1010 0 1010 0 0 600 0 600 -1010 0 -1010 0 0 -600z
m453 326 c3 -8 4 -116 1 -242 -4 -232 -6 -245 -43 -239 -14 2 -16 30 -19 248
l-2 247 29 0 c16 0 31 -6 34 -14z m275 -129 c96 -35 149 -155 106 -240 -39
-76 -88 -107 -170 -107 -104 0 -174 69 -174 171 0 67 19 110 65 145 56 42 112
53 173 31z m446 -24 c60 -42 80 -89 84 -202 3 -56 -1 -112 -8 -135 -25 -86
-88 -136 -171 -136 -37 0 -39 2 -39 30 0 25 4 30 25 30 15 0 38 6 53 14 30 15
68 53 61 61 -3 2 -40 7 -83 10 -92 6 -135 27 -172 86 -41 66 -29 174 24 222
69 62 154 70 226 20z m392 15 c27 -12 58 -38 75 -61 24 -34 29 -50 29 -101 0
-108 -68 -176 -174 -176 -63 0 -87 9 -129 49 -76 70 -74 185 3 257 58 55 124
66 196 32z"/>
<path d="M614 724 c-30 -14 -64 -68 -64 -100 0 -29 40 -89 67 -101 77 -36 163
21 163 107 0 37 -30 81 -65 96 -43 18 -62 17 -101 -2z"/>
<path d="M1040 733 c-25 -9 -58 -43 -70 -73 -17 -40 2 -93 45 -126 29 -22 41
-25 102 -22 l68 3 0 71 c0 42 -6 82 -14 97 -22 41 -87 66 -131 50z"/>
<path d="M1440 722 c-105 -52 -61 -212 59 -212 36 0 96 53 107 94 10 40 -21
101 -61 120 -42 20 -62 20 -105 -2z"/>
</g>
</svg>
